<svg xmlns="http://www.w3.org/2000/svg" version="1.0" viewBox="39.59 121.14 312.05 130.8"><path d="M343.563 250.754c-2.187 0-4.086-.797-5.687-2.39-1.594-1.602-2.39-3.54-2.39-5.813 0-2.27.753-4.16 2.265-5.672 1.52-1.52 3.414-2.281 5.687-2.281 2.27 0 4.204.804 5.797 2.406 1.602 1.594 2.407 3.484 2.407 5.672 0 2.187-.805 4.086-2.407 5.687-1.593 1.594-3.484 2.39-5.672 2.39zm0 0" fill="#253a3c"/><path d="M287.462 153.587c0-10.258-1.351-17.492-4.047-21.703-2.687-4.207-7.82-6.313-15.39-6.313-10.094 0-19.055 4.211-26.875 12.625-7.813 8.406-11.719 15.977-11.719 22.703v89.828h-17.672v-97.14c0-10.258-1.351-17.492-4.047-21.703-2.687-4.207-8.406-6.313-17.156-6.313-8.742 0-17.023 4.04-24.844 12.11-7.824 8.074-12.074 15.562-12.75 22.468v90.578h-17.656V124.556h17.656v28.515c2.696-7.226 7.66-13.953 14.89-20.172 7.24-6.226 15.313-9.343 24.22-9.343 8.914 0 16.023.804 21.328 2.406 5.3 1.594 9.047 4.074 11.234 7.437 2.188 3.368 3.531 6.309 4.031 8.828.508 2.524.766 6.055.766 10.594 2.688-7.226 7.563-13.91 14.625-20.047 7.063-6.144 14.629-9.218 22.703-9.218 8.082 0 14.563.671 19.438 2.015 4.875 1.344 8.53 2.86 10.968 4.547 2.446 1.68 4.301 4.117 5.563 7.313 1.258 3.199 1.973 5.808 2.14 7.828.165 2.023.25 4.883.25 8.578v78.969c0 4.886.97 8.632 2.907 11.234 1.937 2.605 3.91 3.996 5.922 4.172l2.78.5h7.829v2.015h-15.39c-6.899 0-12.157-1.507-15.782-4.53-3.617-3.032-5.508-6.063-5.672-9.095l-.25-4.296Zm0 0" fill="#253a3c"/><path d="M78.377 250.368c22.33-1.067 38.56-8.181 48.693-21.347 3.603-4.717 6.421-10.897 8.454-18.534 2.024-7.637 2.778-16.824 2.265-27.561-.513-10.746-2.73-20.304-6.656-28.669-3.935-8.372-9.057-14.74-15.366-19.1-12.235-8.153-26.709-11.834-43.42-11.036-4.776.228-9.412.84-13.913 1.838-4.496.997-7.86 1.967-10.091 2.907l-3.156 1.402.617 1.77c7.962-3.611 16.84-5.654 26.629-6.122 12.653-.604 23.416 3.011 32.288 10.847 6.745 5.779 11.706 14.517 14.893 26.21 1.872 6.606 3.035 14.747 3.497 24.424.462 9.668-.486 18.653-2.842 26.963-2.356 8.309-5.196 14.522-8.527 18.63-3.34 4.102-7.455 7.44-12.35 10.008-4.902 2.56-8.837 4.094-11.809 4.6-2.968.497-6.569.845-10.806 1.047-4.245.203-9.072.02-14.48-.56-5.41-.574-9.504-1.157-12.285-1.743l-4.181-1.068-.445 1.82c9.23 2.794 20.224 3.884 32.99 3.274Zm0 0" fill="#f9f5f3"/></svg>