<?xml version="1.0" encoding="UTF-8" standalone="no"?>
<!-- Uploaded to: SVG Repo, www.svgrepo.com, Generator: SVG Repo Mixer Tools -->

<svg
   fill="#000000"
   width="800px"
   height="800px"
   viewBox="0 0 14 14"
   role="img"
   focusable="false"
   aria-hidden="true"
   version="1.1"
   id="svg1"
   sodipodi:docname="brand-elementor-svgrepo-com.svg"
   inkscape:version="1.4 (e7c3feb1, 2024-10-09)"
   xmlns:inkscape="http://www.inkscape.org/namespaces/inkscape"
   xmlns:sodipodi="http://sodipodi.sourceforge.net/DTD/sodipodi-0.dtd"
   xmlns="http://www.w3.org/2000/svg"
   xmlns:svg="http://www.w3.org/2000/svg">
  <defs
     id="defs1" />
  <sodipodi:namedview
     id="namedview1"
     pagecolor="#505050"
     bordercolor="#eeeeee"
     borderopacity="1"
     inkscape:showpageshadow="0"
     inkscape:pageopacity="0"
     inkscape:pagecheckerboard="0"
     inkscape:deskcolor="#505050"
     inkscape:zoom="0.47361417"
     inkscape:cx="312.49065"
     inkscape:cy="437.06463"
     inkscape:window-width="1368"
     inkscape:window-height="665"
     inkscape:window-x="0"
     inkscape:window-y="25"
     inkscape:window-maximized="0"
     inkscape:current-layer="svg1" />
  <path
     d="M 12.4,1 1.6,1 C 1.2678571,1 1,1.26786 1,1.6 L 1,12.4 C 1,12.73214 1.2678571,13 1.6,13 l 10.8,0 C 12.732143,13 13,12.73214 13,12.4 L 13,1.6 C 13,1.26786 12.732143,1 12.4,1 m -6.9991071,8.66518 -1.0660715,0 0,-5.33036 1.0660715,0 0,5.33036 z m 4.2669642,0 -3.2008928,0 0,-1.06607 3.2008928,0 0,1.06607 z m 0,-2.13214 -3.2008928,0 0,-1.06608 3.2008928,0 0,1.06608 z m 0,-2.13483 -3.2008928,0 0,-1.06607 3.2008928,0 0,1.06607 z"
     id="path1"
     style="stroke-width:1.0000025;stroke-dasharray:none;fill:#fe7ae5;fill-opacity:1" />
</svg>
