<?xml version="1.0" standalone="no"?>
<!DOCTYPE svg PUBLIC "-//W3C//DTD SVG 20010904//EN"
 "http://www.w3.org/TR/2001/REC-SVG-20010904/DTD/svg10.dtd">
<svg version="1.0" xmlns="http://www.w3.org/2000/svg"
 width="512.000000pt" height="512.000000pt" viewBox="0 0 512.000000 512.000000"
 preserveAspectRatio="xMidYMid meet">

<g transform="translate(0.000000,512.000000) scale(0.100000,-0.100000)"
fill="#000000" stroke="none">
<path d="M617 4469 c-13 -18 -13 -28 -1 -77 47 -198 964 -3901 970 -3915 3 -9
17 -20 31 -23 21 -6 37 5 106 73 45 44 669 644 1387 1333 1372 1317 1500 1441
1500 1457 0 32 -49 49 -515 183 -1188 342 -1666 479 -2050 590 -924 266 -1393
400 -1403 400 -6 0 -17 -9 -25 -21z m506 -207 c225 -65 408 -122 409 -127 0
-6 -137 -141 -304 -302 -242 -234 -305 -288 -311 -275 -4 9 -50 193 -102 407
-53 215 -98 396 -100 403 -2 6 -3 12 -2 12 1 0 186 -53 410 -118z m985 -283
c213 -61 390 -115 395 -118 4 -4 -86 -97 -200 -207 -115 -109 -251 -241 -304
-292 l-97 -93 -97 393 c-53 216 -98 401 -101 411 -3 9 0 17 5 17 6 0 186 -50
399 -111z m-394 -322 c54 -219 96 -401 93 -403 -5 -5 -770 212 -795 226 -10 5
82 99 289 298 167 160 306 288 309 284 3 -4 50 -186 104 -405z m1759 -76 c5
-5 -128 -139 -294 -299 -166 -161 -304 -290 -306 -289 -4 4 -203 805 -203 816
0 8 790 -216 803 -228z m-788 -215 c53 -214 94 -390 93 -392 -4 -3 -799 223
-805 229 -2 3 133 136 299 296 248 238 304 288 311 274 4 -10 50 -193 102
-407z m1781 -69 c4 -4 -607 -592 -615 -592 -4 0 -77 286 -206 811 -4 20 28 12
407 -97 226 -66 413 -120 414 -122z m-812 -192 c55 -222 98 -407 95 -409 -4
-4 -798 219 -806 227 -3 4 598 586 607 586 3 1 50 -181 104 -404z m-2229 160
c187 -54 344 -101 348 -105 6 -5 -116 -127 -554 -548 l-57 -54 -101 409 c-55
225 -101 415 -101 421 0 7 21 4 63 -7 34 -10 215 -62 402 -116z m1325 -386 c0
-4 -136 -138 -302 -299 l-303 -292 -102 409 c-56 224 -102 411 -102 414 -1 3
181 -46 404 -109 223 -64 405 -119 405 -123z m-793 -206 c56 -229 101 -418
100 -419 -7 -7 -815 232 -816 241 -1 9 598 593 609 594 3 1 51 -187 107 -416z
m1376 41 c221 -64 403 -117 405 -119 3 -3 -606 -589 -616 -593 -4 -1 -52 179
-106 400 -54 222 -101 409 -103 416 -3 6 0 12 7 12 6 0 193 -52 413 -116z
m-406 -327 c55 -227 100 -413 99 -414 -4 -5 -821 235 -821 241 0 10 609 594
615 589 3 -2 51 -190 107 -416z m-1314 -103 c221 -63 402 -116 403 -117 2 -1
-135 -134 -302 -296 -168 -161 -306 -292 -308 -290 -2 2 -47 182 -100 399 -54
217 -100 401 -102 408 -2 6 -1 12 2 12 4 0 187 -52 407 -116z m1022 -294 c193
-55 354 -102 359 -103 5 -2 -128 -134 -294 -295 -167 -161 -307 -289 -310
-285 -6 7 -200 789 -200 805 0 4 21 1 48 -7 26 -8 205 -59 397 -115z m-346
-698 c-7 -3 -776 216 -795 227 -6 3 123 135 295 300 l306 294 101 -409 c55
-225 97 -410 93 -412z m-11 -103 c-7 -15 -621 -599 -626 -594 -4 4 -210 818
-212 836 0 3 189 -48 420 -115 231 -66 419 -123 418 -127z"/>
</g>
</svg>
